<svg viewBox="180 330 840.0000000000001 539.9999999999998" xmlns="http://www.w3.org/2000/svg" overflow="visible" xmlns:xlink="http://www.w3.org/1999/xlink" width="840.0000000000001px" height="539.9999999999998px"><g id="Master/Sticker/Small Building 3" stroke="none" stroke-width="1" fill="none" fill-rule="evenodd"><g id="Group-15" transform="translate(194.000000, 330.000000)"><polygon id="Triangle" fill="#b3c7ca" points="532.5 0 812.5 230 252.5 230 279.782051 0"/><rect id="Rectangle" fill="#ffffff" x="-.5" y="230" width="560" height="310"/><rect id="Rectangle" fill="#ffffff" x="559.5" y="230" width="252" height="310"/><path d="M279.5,333 C310.427946,333 335.5,358.072054 335.5,389 L335.5,540 L335.5,540 L223.5,540 L223.5,389 C223.5,358.072054 248.572054,333 279.5,333 Z" id="Rectangle" fill="#689197"/><rect id="Rectangle" fill="#689197" x="45.5" y="333" width="132" height="161"/><rect id="Rectangle" fill="#689197" x="381.5" y="333" width="132" height="161"/><rect id="Rectangle" fill="#115e67" x="619.5" y="333" width="132" height="161"/><polygon id="Triangle" fill="#ffffff" points="279.5 0 559.5 230 -0.5 230"/><circle id="Oval" fill="#689197" cx="281.5" cy="198" r="46"/></g></g></svg>