<svg width="492" height="390" viewBox="0 0 492 390" fill="none" xmlns="http://www.w3.org/2000/svg">
<path fill-rule="evenodd" clip-rule="evenodd" d="M329.109 143.256C324.879 151.527 320.409 159.579 315.897 167.699C313.507 171.998 305.803 189.778 303.813 190.457C301.67 191.188 288.544 183.469 284.776 181.957C278.082 179.27 271.721 176.726 264.728 175.069C256.898 173.213 249.005 171.845 240.883 172.535C237.326 172.838 231.438 173.698 234.974 168.7C237.551 165.056 240.047 161.7 243.548 159.068C246.096 157.151 249.83 153.636 252.813 152.356C255.943 151.013 260.559 151.31 263.923 151.389C267.559 151.475 284.89 156.883 285.844 151.247C287.611 152.855 288.641 152.233 290.666 153.019C292.95 153.904 294.373 155.623 296.64 156.661C298.111 157.335 300.822 159.998 302.457 160.014C304.631 160.035 305.216 158.235 306.777 156.906C310.274 153.929 314.931 151.969 318.725 149.383C322.067 147.104 325.248 144.729 329.109 143.256ZM291.033 77.8783C290.735 81.6541 291.754 85.1626 291.73 89.0477C291.719 90.7431 291.642 92.4378 292.157 94.0712C292.619 95.5354 292.296 98.1659 292.542 99.699C288.217 98.3824 280.181 96.4298 275.766 98.2052C271.544 99.9027 271.013 107.752 270.864 111.57C270.763 114.171 271.918 118.18 271.042 120.671C270.634 121.833 270.631 122.208 270.656 122.313L270.659 122.324C270.576 122.281 270.237 122.282 269.042 123.144C267.857 123.998 266.442 124.47 265.271 125.413C263.141 127.132 262.776 129.079 261.725 131.569C260.704 133.988 257.984 136.138 254.947 136.05C257.388 131.627 260.777 127.496 258.832 122.3C257.365 118.379 259.937 113.777 261.96 110.052C262.629 108.818 270.054 99.3668 266.764 98.7005C264.628 98.2674 259.724 108.3 258.786 110.052C256.169 108.283 254.994 106.103 257.008 103.438C258.555 101.392 260.454 99.6419 261.96 97.5232C264.404 94.0844 266.787 89.98 269.69 86.9255C274.789 81.5622 283.69 77.9111 291.033 77.8783ZM359.56 72.0183C362.818 75.1398 366.94 77.729 370.088 81.0049C372.845 83.8728 376.556 88.6966 377.865 92.5278C371.147 93.8227 359.984 97.789 357.308 104.84C346.86 95.2478 342.817 112.784 340.744 120.117C334.629 117.471 335.848 108.661 335.929 103.518C335.992 99.4375 338.477 94.6082 332.553 94.2738C328.125 94.025 323.826 95.828 319.833 97.5164C314.85 99.6231 309.624 102.775 305.599 106.395L301.406 103.131C308.285 99.2687 311.87 91.885 315.897 85.124C317.181 82.9686 318.896 80.5717 319.833 78.2418C320.481 76.6306 320.937 73.3785 321.647 71.946C322.764 69.6939 333.678 69.0739 336.569 68.4935C344.201 66.9616 353.323 66.0434 359.56 72.0183Z" fill="white"/>
<path fill-rule="evenodd" clip-rule="evenodd" d="M307.059 0.313459L306.921 0.289929C308.849 0.596398 309.66 1.32844 311.29 2.14894C312.858 2.9381 314.449 3.15402 316.152 3.66179C317.667 4.11383 318.996 4.34229 320.02 5.66289C320.829 6.70768 320.5 8.465 321.317 9.3656C322.123 10.253 323.718 10.1241 324.679 11.178C325.602 12.1893 326.153 13.861 326.633 15.1196C327.281 16.8149 327.357 17.4515 328.497 18.8083C329.492 19.9924 330.924 20.9446 331.754 22.2951C333.709 25.4789 333.759 30.0829 333.135 33.6644C332.923 34.8841 331.155 38.0365 331.432 39.0743C331.695 40.062 333.353 39.8022 334.103 40.427C334.752 40.9668 335.323 43.3719 335.834 43.5188C336.939 43.8357 338.302 41.6535 339.14 41.3262C340.594 40.7571 341.203 40.1734 342.01 42.318C342.607 43.9096 341.775 46.0695 341.336 47.5886C340.779 49.5222 340.163 51.8506 338.686 53.3126C336.95 55.0316 335.559 54.092 333.643 55.0177C330.772 56.4052 331.619 60.7431 328.086 61.9829C324.719 63.1642 321.009 59.4476 318.462 57.739C318.99 61.8868 320.976 65.8834 320.022 70.1343C327.767 67.1003 335.426 62.7944 343.865 61.8457L344.746 61.7462C348.76 61.2944 352.793 60.9102 356.578 62.575C361.333 64.6659 364.246 69.2783 367.465 73.1105C373.514 80.3133 379.72 87.314 385.525 94.7487C390.85 101.568 395.34 109.47 401.201 115.856C407.144 122.332 411.629 132.838 410.979 141.805C410.92 142.614 410.293 144.453 410.391 145.326C410.468 145.995 411.075 146.842 411.066 147.381C411.033 149.196 410.433 150.241 408.704 151.247C405.705 152.993 401.237 153.877 397.849 154.31C393.347 154.886 387.833 154.948 383.329 154.333C378.684 153.698 374.601 151.098 370.329 149.527C366.581 148.147 362.818 147.287 358.88 146.407C356.708 145.921 354.304 144.578 352.962 145.878C351.729 147.073 351.473 153.206 351.186 154.836C348.071 172.51 344.369 189.584 341.09 207.168C337.374 227.098 334.833 247.021 332.248 267.12C330.769 278.626 329.917 290.214 329.357 301.777L329.356 301.715C329.377 302.454 329.397 303.193 329.416 303.931C329.397 303.213 329.377 302.494 329.357 301.777C329.028 308.574 328.801 315.364 328.606 322.122C328.355 330.829 328.319 339.443 328.372 348.158C328.402 353.038 330.841 369.327 323.607 369.951C319.356 370.318 315.955 364.223 314.816 360.899C313.105 355.905 312.213 350.527 311.94 345.281C311.388 334.661 310.665 324.032 310.236 313.408C309.772 301.897 310.362 290.174 311.308 278.701C312.261 267.151 314.661 255.77 315.396 244.203C313.188 247.354 312.482 247.946 308.804 249.318C304.956 250.755 301.254 252.454 297.37 253.794C296.049 254.249 293.988 254.535 292.905 255.281C290.906 256.657 292.219 255.096 291.581 257.774C290.899 260.636 290.771 264.072 290.59 267.013C289.739 280.815 285.916 294.518 284.152 308.246C283.727 311.561 284.334 325.632 278.63 321.198C274.236 317.782 274.323 307.055 273.698 302.031C272.866 295.333 273.33 288.446 273.462 281.708C273.611 274.034 273.74 265.985 275.571 258.492C272.295 257.931 267.738 259.459 264.44 259.716C261.585 259.938 258.739 260.079 255.9 260.235C249.128 260.607 242.153 260.904 235.268 260.771C234.014 260.746 225.825 259.6 224.778 260.524C224.438 260.824 224.334 264.953 224.271 265.458C224.03 267.355 223.703 269.25 223.459 271.137C222.682 277.168 221.979 283.645 222.202 289.674C222.374 296.949 222.112 304.267 222.267 311.576C222.433 319.381 223.434 327.03 223.911 334.757C224.34 341.682 225.275 348.475 226.035 355.367C226.471 359.336 226.975 363.132 227.647 367.072C228.276 370.759 228.383 374.007 223.976 374.998C215.55 376.894 214.241 364.772 212.612 359.664C210.181 352.042 208.622 344.039 207.418 336.137C206.748 331.74 206.012 327.361 205.278 322.986L205.274 323.877L205.277 322.983C203.556 312.717 201.846 302.473 201.03 292.067C200.314 282.928 199.275 273.882 198.686 264.751C198.57 262.962 199.026 260.205 197.455 259.408C196.509 258.93 193.907 258.926 192.714 258.579C189.39 257.612 186.325 256.188 183.082 254.711C185.383 266.746 186.143 278.72 187.87 290.86C188.786 297.301 190.539 303.976 192.058 310.316C193.632 316.886 193.982 323.96 195.797 330.387C196.597 333.22 197.275 334.374 196.114 337.281C194.689 340.85 195.634 341.704 197.42 345.209C200.705 351.657 203.213 359.267 202.656 366.537C202.202 372.474 197.716 375.582 192.159 377.184C185.208 379.187 177.929 378.95 170.936 381.225C164.843 383.207 158.653 384.671 152.736 387.287C150.351 388.341 148.084 389.593 145.435 389.787C141.802 390.051 139.352 387.942 135.92 387.503C133.775 387.229 130.635 388.252 129.4 386.004C128.42 384.222 129.528 380.332 130.758 378.897C134.212 374.865 141.129 371.352 145.787 368.973C151.156 366.23 156.351 362.798 161.325 359.259C164.34 357.113 167.415 355.054 170.428 352.905C172.421 351.482 173.178 351.473 172.975 349.212C172.812 347.41 172 345.661 171.858 343.816C171.749 342.402 172.244 340.474 171.576 339.552C171.085 338.871 169.24 338.391 168.515 337.876C165.862 335.995 165.259 333.669 164.054 330.808C161.318 324.311 158.174 317.996 155.532 311.447C149.859 297.385 146.397 282.598 141.694 268.249C136.889 253.59 132.592 238.2 129.946 222.991C126.405 224.068 123.063 228.837 120.243 231.196C116.433 234.385 112.53 237.468 108.793 240.744L107.679 241.719C101.922 246.751 96.1619 251.726 91.4078 257.767C88.9697 260.865 86.9734 264.198 84.766 267.453C83.4909 269.332 82.3022 271.46 80.9211 273.249C80.6995 273.536 80.6933 274.125 80.4543 274.37C79.9282 274.907 78.9241 274.191 78.5869 274.545C76.5063 276.721 76.5334 282.899 75.8847 285.77C74.9914 289.727 73.9881 294.277 70.8985 297.004C66.1262 301.216 57.325 301.868 51.2853 302.087C43.5342 302.368 36.0151 304.528 28.6612 306.848C25.2309 307.929 21.8905 309.195 18.4477 310.245C16.4674 310.851 14.2084 312.056 12.0936 311.824C9.54337 311.545 7.52965 309.399 5.66156 307.804C2.67303 305.253 -0.093923 302.738 0.00244528 298.552C0.110236 294.12 2.51068 290.776 6.29215 288.575C13.6029 284.319 21.7797 281.591 29.6597 278.651C32.6796 277.523 35.2647 276.275 38.1522 274.758C42.2319 272.612 46.9282 270.861 50.5481 268.029C51.6155 267.193 55.5378 264.633 55.8722 263.312C55.9161 263.14 54.9357 261.124 54.9316 260.804C54.9218 259.982 55.4089 259.091 55.7085 258.387C57.594 253.954 60.7567 249.686 63.1746 245.506C67.6027 237.85 72.0475 230.153 77.1815 222.952C87.4187 208.596 98.9185 194.54 111.33 182.008C117.381 175.899 122.61 168.969 128.746 162.944C131.177 160.558 133.743 158.615 136.739 157.066C140.078 155.339 143.826 155.001 147.653 154.473C156.928 153.197 164.674 155.94 173.382 158.328C181.613 160.585 189.854 162.488 198.132 164.839C207.223 167.42 216.221 169.896 225.283 172.71C230.125 174.213 235.107 175.136 239.972 176.578C242.314 177.272 251.171 181.621 253.124 180.192C246.971 177.305 240.668 174.674 234.085 172.931C232.147 172.418 230.909 172.986 230.98 170.76C231.02 169.546 232.384 167.907 232.876 166.908C234.052 164.515 235.383 162.177 236.534 159.777C232.361 160.962 221.144 165.063 218 160.823C214.709 156.386 217.456 147.686 219.519 143.341C224.903 131.999 234.06 122.534 242.983 113.984C244.913 112.135 249.073 109.721 250.102 107.367C250.415 106.651 249.734 105.599 250.44 104.669C250.859 104.116 252.545 103.738 253.218 103.142C253.415 102.967 253.609 102.777 253.8 102.574C254.007 101.485 254.44 100.563 255.42 100.04C254.98 100.774 254.54 101.508 254.099 102.242C256.148 99.8752 257.837 96.051 259.324 93.5527C261.1 90.5709 262.7 87.3419 264.931 84.6665L265.29 84.2355C268.829 79.9915 272.541 75.6207 278.257 74.6311C281.155 74.1296 284.233 74.397 287.011 73.3961C290.37 72.1856 293.562 70.2785 296.954 69.0247C296.112 67.2946 295.43 64.5433 293.797 64.3546C292.225 64.1721 289.92 65.5233 288.121 65.5136C285.493 65.499 283.25 65.079 280.714 64.5782C277.908 64.023 276.983 64.124 275.96 61.0795C274.887 57.8902 275.158 54.1861 275.167 50.8734C275.171 49.2547 275.492 47.2452 275.354 45.6565C275.147 43.2625 274.682 43.1706 272.805 41.648C270.46 39.7458 267.57 37.2285 270.442 33.9236C271.994 32.1377 275.183 33.5265 276.558 31.6076C277.958 29.6532 277.89 24.7434 278.317 22.4477C274.001 24.5693 275.583 16.638 275.583 14.7295C275.582 11.9525 273.721 6.95842 276.4 4.64806C277.645 3.57542 278.57 4.46279 279.993 3.84637C281.617 3.14288 282.64 1.2978 284.368 0.582468C287.803 -0.839829 291.31 0.872917 294.836 0.590129C298.374 0.306821 301.858 -0.207251 305.397 0.102872C305.964 0.0313847 306.542 -0.170125 307.059 0.313459ZM465.609 344.385C470.052 345.271 474.666 346.435 478.901 348.078C483.303 349.787 487.24 350.143 488.298 355.134C490.548 354.078 492.241 353.924 491.972 357.027C491.893 357.939 491.231 358.931 491.072 359.871C490.838 361.257 491.248 362.718 491.016 364.108C490.174 369.162 483.36 372.905 479.138 374.889C473.931 377.336 467.213 380.951 461.4 381.428C455.206 381.938 448.455 379.505 442.306 379.28C441.172 378.189 437.759 378.237 436.338 377.904C433.538 377.25 430.779 376.57 427.941 376.079C423.336 375.282 416.062 374.926 415.562 368.951C415.145 363.987 421.144 362.809 424.653 361.127C429.929 358.596 435.312 356.261 440.722 354.03C445.794 351.938 450.941 350.17 456.106 348.362C457.113 348.01 457.931 348.058 458.753 347.252C459.402 346.616 459.202 345.381 459.913 344.716C461.541 343.194 463.653 343.994 465.609 344.385ZM174.315 341.03C176.603 345.3 181.414 351.548 177.961 356.491C176.67 358.337 174.524 358.864 172.606 359.801C170.285 360.935 168.142 362.387 165.948 363.738C156.9 369.309 147.706 374.959 138.172 379.739C141.156 380.702 145.746 381.369 148.819 380.529C152.399 379.551 155.712 377.307 159.387 376.326C165.98 374.566 172.919 373.068 179.617 372.165C185.091 371.428 198.795 373.095 198.13 364.861C197.498 357.044 192.828 349.586 191.439 341.858C188.03 342.616 184.777 342.483 181.294 342.538C178.968 342.035 176.641 341.532 174.315 341.03ZM458.36 351.852C448.539 357.45 437.549 361.3 427.204 365.843C430.241 368.517 437.074 368.632 440.87 369.485C443.641 370.107 446.279 370.957 448.933 371.942C451.405 372.86 455.388 374.971 457.994 375.041C460.195 375.1 461.984 372.935 463.878 371.768C466.37 370.234 468.851 368.726 471.363 367.229C476.678 364.062 481.647 360.182 486.691 356.608C484.293 354.548 481.912 354.759 478.944 354.135C476.212 353.559 473.556 352.569 470.829 351.91C468.689 351.393 466.571 350.694 464.438 350.205C461.427 349.515 461.13 350.275 458.36 351.852ZM488.407 362.242C484.014 365.699 479.931 368.961 475.173 371.965C478.536 371.86 489.72 366.497 488.407 362.242ZM202.951 260.012C202.951 264.657 204.765 269.931 205.608 274.525C206.394 278.811 207.04 283.12 207.689 287.425C209.093 296.748 209.492 306.2 211.017 315.548C212.398 324.024 214.22 332.464 215.225 340.939C215.776 345.591 216.891 349.98 217.758 354.629C218.211 357.054 219.862 367.039 221.941 368.021C222.381 364.439 220.585 360.114 220.263 356.492C219.931 352.752 219.674 348.987 219.068 345.228C218.356 340.815 217.996 336.293 217.723 331.825C217.557 329.091 217.506 326.366 217.27 323.634C217.099 321.652 216.348 318.648 216.887 316.704C216.843 304.172 216.665 291.533 216.871 279.094C216.927 275.639 217.209 271.913 217.71 268.486C218.024 266.331 219.875 261.752 218.658 260.719C217.619 259.835 212.131 260.417 210.784 260.386C208.172 260.325 205.568 260.209 202.951 260.012ZM341.156 141.992C341.068 144.877 340.093 147.383 339.677 150.255C339.103 154.219 338.005 158.068 337.348 162.019C336.1 169.529 333.787 176.877 331.75 184.2C329.674 191.666 328.98 199.358 327.072 206.861C325.499 213.043 324.696 219.852 323.818 226.207C321.688 241.625 318.653 257.072 316.343 272.497C314.176 286.959 313.959 301.715 314.084 316.312C314.16 325.224 315.52 334.11 315.449 343.034C315.431 345.24 315.617 347.439 315.732 349.641C315.812 351.195 314.978 355.503 315.686 356.804C316.134 357.628 318.059 358.388 318.74 359.533C319.818 361.343 320.045 363.507 321.777 364.877C323.18 359.216 322.517 351.746 322.21 345.969C321.913 340.403 322.49 334.65 322.603 328.999C322.825 317.912 323.412 306.988 323.981 295.896C324.604 283.732 326.376 271.272 328.107 259.199C329.681 248.222 330.731 237.049 331.967 226.131C333.886 212.352 336.225 198.343 338.842 184.742C341.487 170.998 344.667 157.379 348.244 143.687L341.156 141.992ZM432.084 296.586C432.777 298.913 433.788 305.319 431.922 307.299C429.473 309.899 423.803 309.069 420.637 309.745C421.111 311.092 422.521 312.008 422.033 313.613C426.47 313.822 427.255 318.013 427.95 321.926C428.669 325.975 427.266 327.584 431.135 329.692C436.527 332.63 442.24 335.597 442.134 342.594C442.081 346.112 441.687 351.418 438.075 353.243C434.541 355.028 428.787 354.727 424.893 355.375C417.351 356.631 409.783 358.104 402.195 358.858C394.116 359.661 385.902 360.32 377.809 360.679C373.4 360.875 369.591 361.541 365.332 360.058C361.145 358.599 357.05 357.534 352.73 356.45C348.465 355.382 335.41 353.943 339.214 346.65C339.823 345.483 341.903 344.555 342.239 343.451C342.781 341.672 340.951 340.282 341.027 338.674C341.167 335.731 344.487 335.362 346.78 335.362C342.85 332.904 348.112 329.994 348.081 327.908C348.03 324.491 344.077 322.189 343.311 319.407L343.311 319.445C343.008 318.685 343.042 317.948 343.372 317.228L343.363 317.506C345.528 312.238 366.591 319.177 370.018 320.695C367.2 324.875 354.125 321.258 350.23 320.624C350.761 322.02 351.269 323.274 351.423 324.703C351.547 325.867 351.103 327.198 351.51 328.37C352.153 330.223 352.13 329.868 354.406 330.373C356.089 330.747 357.754 331.179 359.431 331.574C362.009 332.182 366.063 333.814 368.616 333.725C370.856 333.647 370.414 334.341 370.824 331.854C371.045 330.517 370.668 329.096 370.443 327.786C369.973 325.041 369.285 322.443 371.682 320.474C373.967 318.596 378.785 317.702 381.588 317.039C387.811 315.569 394.992 315.209 401.376 315.285C406.236 314.873 411.101 314.554 415.974 314.382C421.546 314.187 417.496 313.297 417.379 309.899C410.055 311.067 402.667 311.298 395.367 312.296C389.319 313.124 382.114 315.286 375.944 314.125C373.035 313.577 370.064 313.366 366.968 313.057C364.048 312.765 361.293 311.404 358.408 311.066C355.17 310.687 351.862 312.507 348.64 312.988C347.275 313.192 346.958 314.118 346.313 312.474C345.644 310.769 347.559 309.376 348.314 308.357C349.194 307.166 348.828 309.1 349.317 307.24C349.454 306.719 349.083 305.41 349.015 304.849C348.842 303.43 348.396 301.89 348.327 300.474C348.263 299.173 348.252 297.188 349.664 296.428C350.526 295.965 351.136 296.641 351.888 296.51C357.752 295.49 364.65 295.406 370.598 296.391C377.045 297.457 382.595 294.633 388.95 293.488C396.405 292.145 403.938 291.943 411.458 291.375C417.887 290.891 429.635 288.374 432.084 296.586ZM344.59 339.595C345.783 341.891 345.25 344.931 343.817 346.991C348.985 349.011 354.47 349.744 359.681 351.583C364.34 353.228 368.667 355.439 373.254 357.111C373.523 354.983 373.666 351.379 372.88 349.374C371.767 346.533 368.839 346.464 365.955 345.452C358.938 342.99 351.556 342.471 344.59 339.595ZM433.025 339.564C421.864 339.892 411.198 342.489 400.198 344.095C394.845 344.876 389.488 345.573 384.13 346.303C382.068 346.583 378.311 346.253 376.812 348.038C375.57 349.517 376.931 354.562 376.38 356.73C378.636 356.896 382.641 354.789 385.089 354.44C388.902 353.898 392.665 353.138 396.517 352.897C402.618 352.512 408.613 352.185 414.703 351.506C420.897 350.816 426.89 349.533 433.134 349.064C436.168 348.835 437.389 349.404 437.568 346.2C437.638 344.948 437.81 342.851 437.459 341.616C438.02 340.097 437.522 339.36 435.965 339.403C434.975 339.292 433.996 339.345 433.025 339.564ZM417.809 333.258C411.743 334.647 405.519 334.695 399.443 336.057C393.161 337.465 386.798 338.764 380.4 339.48C377.354 339.821 374.086 340.512 371.076 339.707C370.832 339.532 370.586 339.357 370.342 339.183C370.079 338.063 369.349 337.764 368.151 338.286C366.629 337.996 364.692 338.37 363.161 338.408C363.099 339.02 368.757 340.939 369.836 341.414C372.435 342.558 374.198 343.396 376.974 342.906C383.225 341.802 389.374 340.484 395.705 339.668C408.079 338.544 420.359 336.083 432.802 336.083C431.922 335.204 430.006 334.977 428.911 334.497C427.663 333.951 426.484 332.787 425.264 332.309C422.816 331.351 420.324 332.683 417.809 333.258ZM420.201 318.472C417.342 318.465 414.382 319.069 411.534 319.348C398.606 320.615 385.744 321.15 372.959 323.557C373.737 326.87 374.621 330.29 373.69 333.679C379.823 333.995 386.556 332.815 392.551 331.604C398.677 330.367 405.177 329.753 411.438 329.339C414.457 329.056 417.487 328.65 420.513 328.48C421.127 328.445 424.239 328.632 424.747 328.062C425.467 327.255 424.665 324.303 424.533 323.39C424.084 320.284 423.588 318.479 420.201 318.472ZM351.975 299.937C352.067 301.121 352.135 302.305 352.178 303.492C352.662 305.377 354.692 304.52 356.44 304.727C358.787 305.005 361.121 305.815 363.394 306.425C367.521 307.534 371.649 308.628 375.759 309.8C375.597 308.14 375.964 304.362 375.087 302.89C374.166 301.346 369.803 300.669 367.771 300.199C362.649 299.014 357.178 299.688 351.975 299.937ZM416.966 295.723C408.314 295.952 399.514 296.756 390.977 298.136C386.358 298.157 381.476 300.191 376.919 299.737C376.851 300.585 378.309 299.882 378.712 300.675C379.573 300.677 379.872 300.958 379.609 301.519C379.625 301.901 379.43 302.125 379.022 302.19C378.821 302.208 378.62 302.225 378.42 302.242C377.539 302.271 377.394 302.865 377.987 304.027C377.733 305.467 378.115 307.295 378.17 308.739C386.361 307.625 394.318 306.466 402.567 305.968C406.461 305.733 410.352 305.734 414.241 305.414C418.52 305.061 423.191 305.817 427.375 305.016C429.611 304.587 429.377 304.617 429.214 301.709C429.114 299.942 429.151 297.845 427.713 296.556C425.31 294.403 419.839 295.647 416.966 295.723ZM57.4052 266.346C56.1621 267.657 55.4332 270.073 54.3902 271.606C52.012 275.101 49.1879 277.483 45.4984 279.499C38.8594 283.125 32.6733 285.924 25.5626 288.295C21.6438 289.601 18.0303 291.434 14.2 292.875C11.1314 294.029 6.89627 294.38 4.53903 296.949C1.87938 299.847 5.96745 300.901 8.23968 302.86C10.1015 304.466 10.1377 304.834 12.6845 304.055C14.5819 303.474 16.2639 302.364 18.086 301.611C24.3272 299.033 31.8811 297.317 38.6573 296.568C40.9735 296.979 44.7459 295.649 47.2724 295.51C51.6908 295.267 56.2408 294.846 60.5693 293.927C63.9557 293.207 67.8145 292.574 69.6408 289.296C71.2734 286.367 71.8503 282.698 72.7297 279.501C73.1965 277.804 74.4013 275.342 74.4013 273.586C74.4013 271.303 74.0933 271.753 71.7123 270.503C68.6987 268.922 65.7666 266.719 62.5161 265.822C61.5329 265.63 60.5491 265.442 59.5645 265.257C58.2908 264.518 57.5717 264.882 57.4052 266.346ZM288.013 256.291C285.96 256.538 283.888 256.74 281.86 257.152C279.093 257.714 279.044 257.625 279.242 260.34C279.539 264.416 279.15 268.412 278.94 272.487C278.518 280.645 279.545 288.938 278.862 297.045C279.471 297.2 279.666 296.777 279.449 295.777C279.26 289.722 281.971 282.442 283.508 276.511C285.25 269.791 286.167 262.937 288.013 256.291ZM399.864 262.911C402.276 263.134 404.986 264.108 407.362 264.11C409.785 264.113 412.322 263.573 414.824 263.635C417.732 263.708 420.533 263.494 423.532 263.971C425.83 264.337 431.195 264.529 432.951 266.238C438.803 271.93 424.926 274.544 422.538 275.183C424.968 277.845 424.867 281.365 424.501 284.716C425.658 284.716 427.652 284.213 428.251 285.51C428.994 287.121 426.242 287.54 425.591 287.728C421.847 288.809 417.465 288.513 413.606 288.905C405.892 289.69 398.271 290.143 390.637 291.605C386.917 292.317 383.219 293.198 379.501 293.892C378.859 294.012 378.214 294.107 377.566 294.18C376.571 294.095 376.249 294.719 376.6 296.056C375.568 296.56 371.721 295.304 370.531 295.112C363.72 294.007 357.628 294.466 350.88 296.108C347.956 296.102 351.979 292.776 352.508 292.446C349.27 292.446 348.487 290.504 349.424 287.385C350.308 284.447 350.962 285.346 348.738 282.899C347.065 281.057 346.811 279.7 348.784 277.64C350.793 275.545 354.859 276.137 356.638 274.407C359.667 271.464 355.758 265.599 359.955 263.344C362.792 261.82 367.365 262.009 370.498 261.687C373.525 261.376 376.659 261.316 379.706 261.275C386.35 261.184 393.25 262.298 399.864 262.911ZM363.46 295.441C361.614 295.453 359.766 295.465 357.92 295.476C359.763 295.13 361.61 295.126 363.46 295.441ZM366.784 295.469C365.676 295.458 364.567 295.448 363.46 295.438C364.572 295.135 365.681 295.145 366.784 295.469ZM353.331 281.929C353.788 284.203 352.737 286.131 351.189 287.699H353.537C357.967 287.68 362.155 289.352 366.587 289.785C369.239 290.045 368.406 290.374 370.246 291.705C373.111 293.78 373.937 292.675 373.577 289.856C372.36 280.321 360.287 282.459 353.331 281.929ZM399.16 279.793C391.423 280.371 383.827 281.753 376.036 281.561C373.326 281.363 375.212 282.574 375.881 284.348C376.703 286.528 376.527 289.283 376.716 291.577C384.645 288.553 393.871 286.783 402.301 285.766C406.299 285.283 410.355 285.145 414.375 284.939C415.563 284.878 419.855 285.376 420.725 284.576C421.37 283.981 420.917 280.701 420.297 279.977C416.923 276.044 403.879 279.44 399.16 279.793ZM401.43 275.457C395.057 275.561 388.676 275.923 382.347 275.791C379.515 275.731 375.844 275.17 373.068 275.653C371.034 276.007 369.333 277.042 367.102 277.427C370.379 279.192 372.04 278 375.485 277.598C378.927 277.198 382.42 277.205 385.876 276.996C391.551 276.652 397.601 275.293 403.192 275.663C403.294 274.875 402.708 274.807 401.43 275.457ZM359.378 266.277V270.813C368.727 269.855 377.929 271.584 387.298 271.02C394.319 271.695 401.098 271.631 408.119 272.682C407.587 268.22 408.223 267.081 403.16 266.844C398.649 266.633 394.151 266.463 389.66 266.465C379.562 266.47 369.487 266.277 359.378 266.277ZM410.524 267.369C410.895 269.061 411.265 270.752 411.637 272.443C418.042 270.793 424.54 269.827 430.985 268.436C424.227 267.304 417.362 267.025 410.524 267.369ZM148.689 208.872C151.915 212.03 156.749 213.247 160.63 215.328C163.801 217.027 168.761 218.119 170.765 220.919C172.07 222.742 172.724 226.09 173.709 228.228C174.799 230.593 175.804 232.996 176.813 235.397C177.826 237.813 178.882 240.23 179.705 242.718C180.214 244.261 180.434 247.461 181.637 248.517C183.557 250.201 189.982 250.948 192.569 251.508C197.399 252.555 202.909 252.416 207.836 252.488C209.872 252.518 211.924 252.796 213.869 252.834C216.601 252.886 216.341 252.413 216.302 250.042C216.279 248.617 216.308 246.027 218.213 247.2C219.511 247.999 218.618 251.54 218.378 252.798C229.252 253.881 240.599 254.426 251.422 254.063C262.066 253.707 272.342 252.334 282.856 251.095C285.173 249.764 288.951 250.122 291.514 249.564C294.41 248.934 297.322 247.907 300.083 246.837C302.879 245.753 305.521 244.644 308.077 243.288C309.245 242.668 310.802 242.057 311.883 241.197C312.753 240.503 313.07 239.215 313.873 238.586C315.966 236.944 316.581 237.974 316.862 234.807C317.166 231.367 315.236 229.419 312.834 226.845C310.683 224.541 307.888 222.549 305.186 220.928C303.99 220.212 302.713 219.405 301.493 218.721C299.647 217.685 297.173 215.962 296.205 218.186C298.222 218.701 298.666 221.277 296.846 222.203C295.846 222.711 294.332 221.965 293.205 222.505C291.464 223.34 289.79 225.668 288.3 226.922C283.41 231.039 278.733 232.583 272.333 232.913C258.959 233.603 244.953 232.078 231.836 230.095C228.46 229.585 225.09 230.138 221.682 230.016C218.367 229.898 214.91 229.172 211.651 228.612C205.374 227.534 198.757 226.647 192.577 225.06C185.104 223.141 177.604 220.659 170.587 217.444C163.857 214.36 156.249 209.264 148.689 208.872ZM335.969 140.851C333.436 141.478 332.85 147.28 332.082 149.463C330.673 153.468 329.136 157.317 327.326 161.151C324.448 167.245 321.395 173.125 318.149 179.034C314.726 185.267 311.11 191.26 306.834 196.951C305.43 198.822 303.523 200.287 302.617 202.338C301.193 205.565 300.594 209.411 299.234 212.769C300.192 213.256 302.667 213.377 303.842 213.609C306.027 214.04 307.558 214.423 309.656 215.462C313.353 217.293 316.46 219.462 318.93 222.755C319.551 221.065 319.712 219.211 319.939 217.422C322.59 204.41 324.174 191.176 327.301 178.257C328.861 171.813 329.961 165.279 331.485 158.833C332.194 155.834 332.73 152.805 333.42 149.811C334.12 146.781 335.625 143.984 335.969 140.851ZM329.132 143.22C325.371 144.663 322.605 147.076 319.269 149.107C315.225 151.571 310.483 153.878 306.853 156.922C305.525 158.035 304.779 159.957 302.945 160.082C301.401 160.187 299.073 158.452 297.643 157.755L297.508 157.691C295.137 156.602 292.871 154.952 290.488 153.982C288.53 153.185 287.663 153.348 285.968 151.797C285.018 157.454 267.726 152.166 264.099 152.08C260.743 152.001 256.139 152.398 253.016 153.747C250.04 155.032 247.713 157.86 245.166 159.788C241.674 162.43 238.342 165.103 235.771 168.761C232.244 173.777 237.565 172.357 241.114 172.054C249.214 171.362 257.093 173.291 264.902 175.153C271.882 176.817 278.775 178.813 285.457 181.512C289.215 183.029 293.17 184.424 296.704 186.397C298.567 187.438 301.589 189.984 303.727 189.25C305.687 188.577 307.641 182.957 308.83 180.712C311.138 176.355 313.567 172.07 315.95 167.755C320.452 159.605 324.912 151.522 329.132 143.22ZM252.767 112.282C250.757 114.916 248.443 117.307 246.304 119.833C242.589 124.218 238.649 128.885 234.502 132.943C229.937 137.409 225.996 142.796 223.045 148.514C222.5 149.57 219.186 155.789 220.6 157.009C221.898 158.129 229.119 155.517 230.436 155.211C236.119 153.892 242.57 153.421 247.94 151.025C250.675 149.804 256.712 148.347 258.873 146.458C260.882 144.702 260.791 140.448 259.625 137.973C256.363 140.002 232.777 147.66 234.88 140.415C238.697 139.207 242.316 137.934 246.243 137.11C250.352 136.248 250.627 135.262 252.944 131.737C254.7 129.066 256.831 126.984 256.333 123.712C256.014 121.614 254.865 120.591 255.211 118.231C255.424 116.769 256.107 115.171 256.601 113.78C257.205 112.074 258.459 110.138 255.544 110.054C253.935 110.007 253.856 110.856 252.767 112.282ZM330.06 100.255C325.302 100.07 319.243 104.223 315.058 106.181C310.373 108.373 307.362 108.71 307.313 114.145C307.266 119.291 305.823 124.418 305.193 129.481C304.918 131.693 304.722 143.182 300.674 138.942C299.105 137.298 300.11 134.769 300.227 132.74C300.385 129.949 300.291 127.115 300.387 124.317C300.505 121.987 300.635 119.658 300.894 117.338C301.069 115.779 302.548 111.26 301.712 109.892C300.803 108.403 297.755 108.309 296.288 107.951C293.477 107.266 290.78 106.704 287.923 106.252C285.294 105.836 282.818 105.748 280.17 105.628C277.286 105.497 276.571 104.732 275.933 107.91C275.432 110.409 274.76 113.012 274.666 115.571C274.578 117.973 275.304 120.057 272.924 121.676C278.15 121.676 284.957 117.023 289.727 121.184C296.549 127.134 284.676 128.848 281.546 130.162C284.148 131.427 288.012 132.42 289.237 135.309C290.612 138.547 288.617 139.924 285.564 140.183C285.851 141.432 286.95 142.242 287.277 143.743C287.757 145.944 286.202 145.215 288.186 146.917C290.799 149.158 296.178 150.656 299.383 152.084C300.133 152.419 300.893 152.734 301.661 153.029C302.861 154.097 303.747 153.894 304.32 152.418C305.964 151.377 307.427 149.056 308.886 147.705C312.13 144.7 315.711 142.063 319.566 139.894C317.968 139.232 316.056 140.727 314.523 140C313.283 139.411 313.75 138.34 313.008 137.539C313.305 136.493 312.991 136.111 312.065 136.392C311.602 136.441 311.172 136.362 310.773 136.157C309.998 135.196 309.649 134.881 309.598 133.397C309.543 131.822 310.455 131.266 310.805 130.005C311.943 129.23 311.917 128.468 310.728 127.721C310.239 126.922 309.972 126.055 309.928 125.119C309.702 121.646 312.872 120.246 315.29 118.408C310.961 117.932 311.126 112.855 314.121 110.635C317.226 108.334 323.8 109.276 327.555 109.795C328.336 109.902 330.445 110.909 331.234 110.267C331.719 109.874 331.377 106.546 331.399 105.959C331.45 104.626 331.774 103.037 331.561 101.71C331.117 98.9334 332.059 100.332 330.06 100.255ZM271.15 126.261C267.209 128.497 264.189 132.509 263.61 136.968C262.937 142.157 265.568 146.243 270.75 147.516C272.91 148.047 274.507 148.106 276.507 148.904C277.822 149.428 282.079 150.737 282.981 149.413L282.196 149.125C282.282 147.76 278.75 147.815 278.092 146.247C276.758 143.061 279.8 143.635 281.67 143.305C281.003 141.534 268.517 142.179 271.426 137.397C273.444 134.08 281.096 139.157 283.141 136.005C284.485 133.934 280.827 133.649 279.377 133.442C277.194 133.129 272.051 134.14 272.22 131.307C272.433 127.748 282.431 125.291 285.236 124.246C284.925 121.809 272.892 125.273 271.15 126.261ZM378.454 97.6232C376.055 97.8614 373.64 99.2795 371.38 100.031C368.026 101.147 363.964 101.759 360.905 103.543C358.928 104.696 358.839 104.909 358.862 106.922C358.884 108.797 359.489 111.083 360.61 112.55C362.94 115.596 366.802 117.207 370.117 118.726C372.034 119.605 373.691 120.851 375.398 122.063C377.237 123.369 380.948 124.139 382.355 125.628C386.452 129.966 378.994 129.108 376.91 128.977C372.413 128.694 367.94 128.738 363.409 128.734C358.464 128.731 353.559 128.501 348.683 128.662C345.828 128.756 342.552 127.308 340.702 124.893C339.806 123.724 339.457 122.619 338.286 121.405C336.751 119.816 335.416 118.143 333.548 116.913C330.493 114.902 324.941 113.764 321.304 114.515C322.606 114.696 328.732 116.782 326.035 119.403C325.707 119.722 321.766 119.931 320.91 120.324C319.365 121.034 317.416 122.066 316.51 123.564C319.149 123.122 328.939 122.61 323.945 127.675C322.719 128.918 319.199 130.158 322.194 131.48C322.882 131.784 324.259 131.354 325.145 131.628C326.461 132.036 327.537 133.126 328.77 133.707C332.268 135.357 337.089 136.374 340.739 136.013C345.787 135.512 351.047 136.413 356.061 137.074C362.709 138.092 369.081 140.199 375.13 143.032C378.465 144.592 382.138 146.27 385.864 146.893C390.004 147.586 394.395 147.261 398.623 147.528C400.113 147.622 404.032 148.347 405.485 147.47C406.925 146.601 406.812 145.129 406.879 143.375C407.054 138.862 405.011 134.443 403.175 130.395C401.599 126.921 400.408 124.269 397.962 121.281C394.823 117.443 392.089 113.301 389.148 109.296C386.931 106.276 384.691 103.3 382.431 100.284C380.815 98.1247 380.891 97.3815 378.454 97.6232ZM290.937 78.2418C283.64 78.2739 274.739 81.939 269.67 87.2917C266.985 90.1287 264.766 93.9379 262.494 97.1252C260.971 99.2635 259.483 101.327 257.634 103.207C254.937 105.945 255.709 106.571 258.747 108.634C259.709 106.832 264.807 97.1983 266.944 97.6316C270.192 98.2905 263.92 108.467 263.235 109.734C261.207 113.485 257.931 118.724 259.403 122.68C261.345 127.902 258.529 130.878 256.084 135.327C258.652 135.402 258.905 134.4 259.79 132.21C260.926 129.396 262.167 127.044 264.57 125.098C266.431 123.592 269.475 122.957 270.35 121.138C271.431 118.889 270.752 114.448 270.84 111.946C270.973 108.144 270.983 99.157 275.172 97.4679C279.561 95.698 287.453 97.3662 291.744 98.6771C291.208 95.3268 289.518 93.1383 289.541 89.4154C289.566 85.5184 290.639 82.0413 290.937 78.2418ZM347.819 112.348C346.985 114.811 343.483 120.838 346.546 122.372C347.258 122.729 350.634 122.314 351.23 122.078C352.889 122.511 353.424 121.889 352.838 120.213V116.854C353.037 114.639 354.902 110.468 352.753 109.012C349.746 106.975 348.5 110.332 347.819 112.348ZM358.923 115.883C357.841 117.781 357.763 119.941 357.82 122.066C360.64 121.922 363.446 122.552 366.266 122.277C363.818 120.145 361.371 118.014 358.923 115.883ZM333.913 69.8251C331.237 70.3649 323.477 71.0433 322.18 73.0089C321.367 74.2417 321.821 77.2535 321.219 78.7607C320.388 80.8378 318.97 82.7629 317.831 84.6812C313.677 91.6805 309.452 98.7251 302.344 102.733L305.888 105.512C309.697 102.072 314.199 99.3123 318.901 97.2673C323.108 95.4382 328.333 93.3995 333.013 93.7171C338.843 94.1121 336.407 98.8087 336.386 102.808C336.359 108.115 334.033 115.76 340.369 118.513C342.438 111.165 346.798 93.7889 357.243 103.418C359.912 96.3521 369.432 93.9609 376.136 92.6633C374.921 89.0936 371.23 85.8625 368.672 83.1829C365.472 79.8313 362.945 75.9029 359.739 72.6146C353.406 66.121 341.932 68.2063 333.913 69.8251ZM282.089 15.4281C282.64 18.2776 281.584 21.102 281.567 23.9459C284.596 23.1261 286.681 23.1087 289.671 24.5665C291.095 25.2602 296.46 29.1977 293.742 31.0915C291.54 29.7897 289.184 28.6606 286.729 27.8952C285.761 27.5929 284.552 27.1819 283.522 27.161C281.131 27.113 281.468 27.363 280.57 29.1656C279.705 30.902 279.891 35.4308 277.991 36.5397C276.027 37.6862 277.542 36.0814 275.865 36.4519C274.908 36.6637 273.866 37.3748 272.99 37.7767C274.19 39.0792 276.612 40.2682 277.407 41.7148C278.568 43.8239 278.166 48.1862 278.347 50.4938C279.867 49.9498 281.467 49.9275 283.008 49.5235C284.455 49.1432 286.464 47.4974 286.615 49.9171C286.783 52.6133 282.521 53.3286 280.607 53.3286L278.324 53.1162C278.438 54.7196 278.099 57.3162 279.23 58.1527C280.086 58.7866 281.82 58.5783 282.858 58.781C286.262 59.4462 290.205 60.0027 293.583 58.7908C294.896 58.3199 294.053 57.5823 295.861 57.8888C298.038 58.2586 297.243 58.6034 297.871 59.9616C298.356 61.0099 298.605 62.7937 299.155 64.0523C299.891 65.7365 301.382 68.7503 300.744 70.695C300.125 72.5854 297.813 73.1565 296.83 75.2976C296.1 76.8892 296.272 79.203 295.893 80.9562C295.386 83.2944 294.746 85.6236 294.463 88.005C294.107 91.0049 294.229 94.5251 297.946 94.9904C301.396 95.4229 303.862 94.3141 306.176 91.8017C310.594 87.0055 315.639 80.2346 318.234 74.2013C318.538 73.4964 319.284 72.32 319.18 71.5657C318.974 70.073 318.885 71.5838 318.411 70.5473C317.96 69.5562 317.251 68.657 316.835 67.5572C315.336 63.6058 314.273 59.4643 313.673 55.2817C313.4 53.3871 313.309 51.5156 313.355 49.6022C313.371 48.9489 313.763 46.9875 313.529 46.5403C313.291 46.0869 312.048 45.878 311.66 45.428C310.942 44.5943 309.708 42.24 308.912 41.6159C307.933 40.8491 305.743 41.4564 305.345 39.9311C304.709 37.4897 319.764 33.5133 312.73 30.2557C307.479 27.8234 299.425 40.1184 297.589 30.4437C297.271 28.7679 297.877 26.4931 297.142 24.9572C296.329 23.2598 294.118 22.6253 292.573 21.7992C290.602 20.7461 288.61 19.6637 286.695 18.5102C285.381 17.7197 283.488 15.6204 282.089 15.4281ZM419.419 314.038C418.938 314.525 418.319 314.237 417.757 314.268C418.311 314.191 418.866 314.115 419.419 314.038ZM353.487 296.311C352.756 296.657 352.017 296.705 351.271 296.335C352.01 296.327 352.749 296.319 353.487 296.311ZM279.074 293.958C279.377 294.709 279.561 295.139 279.668 295.373L279.672 295.381C279.645 295.375 279.631 295.412 279.636 295.528C278.604 295.666 278.417 295.143 279.074 293.958ZM324.529 292.296C324.5 292.851 324.472 293.405 324.443 293.958C324.246 293.385 324.15 292.821 324.529 292.296ZM413.879 263.626C414.617 263.627 415.357 263.629 416.095 263.63C415.355 264.013 414.617 263.965 413.879 263.626ZM239.353 253.645C240.092 253.648 240.83 253.651 241.569 253.655C240.827 254.012 240.088 254.047 239.353 253.645ZM356.257 137.029L354.041 136.818C354.785 136.863 355.602 136.506 356.257 137.029ZM147.934 380.792C147.196 380.791 146.456 380.79 145.718 380.789C146.458 380.408 147.196 380.517 147.934 380.792ZM424.96 327.888C424.099 328.43 423.113 328.029 422.19 328.099C423.113 328.029 424.036 327.959 424.96 327.888ZM402.244 352.533L400.028 352.526C400.768 352.256 401.508 352.163 402.244 352.533ZM422.744 350.053C422.054 350.537 421.275 350.258 420.527 350.24L422.744 350.053ZM429.392 304.624C428.845 305.015 428.29 304.96 427.73 304.652L429.392 304.624ZM376.76 299.584C377.128 299.608 377.496 299.631 377.865 299.655C377.679 300.11 376.7 300.052 376.76 299.584ZM356.812 287.702L354.041 287.712C354.963 287.343 355.887 287.415 356.812 287.702ZM401.69 275.748C401.693 275.748 399.002 276.167 398.853 276.155L397.811 275.795L401.69 275.748ZM403.352 275.544L401.823 275.459L401.874 275.449C402.308 275.354 403.357 275.007 403.352 275.544ZM453.766 363.215C453.028 363.131 452.291 363.048 451.554 362.966C452.146 361.892 453.865 361.666 453.766 363.215ZM463.056 355.174C464.841 355.499 467.521 356.979 464.796 358.897C463.201 360.02 458.566 358.643 456.627 358.588C454.075 358.439 450.499 357.743 454.365 355.931C456.818 354.783 460.466 354.703 463.056 355.174ZM244.918 242.986C246.09 244.264 251.373 248.6 248.461 250.343C244.88 252.487 242.154 245.41 244.918 242.986ZM266.151 243.684C266.549 244.698 268.594 247.168 268.081 248.247C267.32 249.849 265.5 248.828 264.512 247.789C262.779 245.965 262.902 243.041 263.92 240.96C266.242 240.025 265.8 242.792 266.151 243.684ZM201.48 237.458C202.653 238.317 204.586 242.673 204.44 244.148C204.259 245.969 203.429 246.694 201.716 246.115C199.747 245.448 198.965 242.089 198.907 240.258C199.507 237.809 199.344 235.893 201.48 237.458ZM286.338 240.284C287.074 241.281 287.833 240.878 287.455 242.522C287.125 243.958 285.807 244.094 284.676 244.094C283.285 241.415 282.942 235.682 286.338 240.284ZM253.633 235.783C257.215 237.516 252.175 245.126 248.921 243.242C244.753 240.831 252.16 236.869 253.633 235.783ZM228.516 243.525C226.579 243.525 221.957 237.942 224.673 237.005C228.044 235.843 230.862 243.935 228.516 243.525ZM295.427 234.675C297.2 235.112 299.547 240.133 296.875 240.715C293.916 241.36 293.388 236.063 295.427 234.675ZM188.874 232.589C192.454 233.674 186.848 239.063 184.877 239.661C183.712 237.408 185.316 231.511 188.874 232.589ZM211.42 230.242C212.838 232.376 212.419 239.067 209.457 235.109C208.198 233.427 209.065 230.322 211.42 230.242ZM306.853 225.393C311.815 225.393 309.65 230.673 305.514 230.792C303.613 230.846 300.879 230.471 301.495 227.927C301.824 226.569 306.646 224.739 306.853 225.393ZM284.479 35.6648C282.233 36.6651 282.515 30.2607 282.673 29.1761C285.423 28.4661 286.083 34.9501 284.479 35.6648Z" fill="white"/>
</svg>
