<svg viewBox="179.16624365482232 367.8375000000001 172.6903553299491 165.8875" xmlns="http://www.w3.org/2000/svg" overflow="visible" xmlns:xlink="http://www.w3.org/1999/xlink" width="172.6903553299491px" height="165.8875px"><g id="Master/Character/Torso" stroke="none" stroke-width="1" fill="none" fill-rule="evenodd"><g id="Torso" transform="translate(139.000000, 391.000000) scale(1 1)"><g id="Torso/Reading Color" stroke="none" stroke-width="1" fill="none" fill-rule="evenodd"><path d="M110.793057,32.9960542 C117.445711,38.0875123 122.616206,40.6332413 126.304545,40.6332413 C129.992883,40.6332413 135.201349,38.0875123 141.929943,32.9960542 L146.174871,32.9960542 L145.506241,62.5404415 L176.6894,61.7498179 L178.57147,75.087079 L192.014891,71.6537088 L193.229135,77.6769521 C199.360587,90.3585952 203.175341,99.3223726 204.673397,104.568284 C206.920481,112.437151 207.567214,114.006163 206.009382,117.789479 C204.45155,121.572795 201.482317,126.076454 195.145146,125.831216 C190.920366,125.667724 184.76845,121.49662 176.6894,113.317904 L162.954863,85.5207464 L162.037477,120.677655 L159.449843,124.081408 C158.746303,121.217074 156.442189,119.784907 152.5375,119.784907 C148.632811,119.784907 138.838687,120.38087 123.155127,121.572795 L121.985005,128.107428 C90.9505188,130.025675 71.9667814,132.142957 65.0337929,134.459273 C58.1008044,136.77559 52.0097511,135.699966 46.7606328,131.2324 C44.8910473,126.996282 44.4236261,124.029337 45.3583694,122.331565 C46.2931127,120.633793 52.8515872,100.335878 65.0337929,61.4378205 C70.9774109,53.5645382 75.7079166,48.8506492 79.22531,47.2961535 C79.3263193,47.2515129 89.8489017,42.4848132 110.793057,32.9960542 Z" id="Path-35" fill="#7c99ab"/><path d="M192.810735,18.3768441 C182.976587,18.4778792 175.550803,21.2060953 170.601995,26.5893576 L170.49,26.713 L170.475535,26.6998007 C165.858916,22.550944 157.759107,22.6370418 146.252661,26.7490076 L146.133273,26.8006269 C145.826864,26.9574826 145.619491,27.2635569 145.592216,27.6128288 L145.279,31.619 L144.833222,31.4612718 L144.701057,31.4245407 C142.745732,31.0232126 141.185716,31.5436493 139.451753,32.9117724 L139.214172,33.1035819 C138.683673,33.5413941 136.868994,35.219143 136.705647,35.3635867 C133.959229,37.7921869 131.50033,38.9275998 127.719824,38.9275998 C121.261173,38.9275998 116.05572,36.5481478 112.026032,31.7601967 C111.75889,31.4427862 111.323504,31.3232869 110.93176,31.4598538 L105.966221,33.2008082 C96.0750125,36.6897377 88.1307189,39.6255691 82.1314373,42.0091649 C72.8742462,45.6871722 66.0259599,53.600224 63.1071888,61.9674824 L62.95973,62.4006573 C62.4790254,63.8485306 61.6144021,66.7779715 60.0646714,72.1742116 L55.959057,86.5191892 L54.1011208,92.959957 L51.9175942,100.418229 C49.2663198,109.375235 47.3188109,115.531597 46.0649789,118.785499 L45.8333594,119.373084 C41.2573321,130.694023 48.4508867,139.903953 61.4474488,136.048225 L61.8430541,135.927374 C70.7004462,133.143952 103.300811,130.006116 159.397195,126.558797 L159.583121,126.529628 L159.699101,126.496176 C163.052826,125.415753 164.346079,115.045222 164.123113,94.2481787 L164.082,91.283 L164.257489,91.7176252 C167.686152,100.107411 172.45203,108.976904 178.553813,118.328132 L179.092,119.15 L179.050003,118.9712 C181.106274,127.882744 188.322351,130.608049 200.117606,127.190379 C208.199232,124.848731 209.71354,117.33545 206.654399,106.278368 C205.933993,103.674505 204.982805,100.945873 203.794005,97.9667548 L203.407124,97.0119843 C202.674512,95.2620194 199.333481,87.6222956 199.052792,86.5840249 L198.957249,86.120102 C198.350347,83.3095557 196.905221,80.6235601 194.638608,78.06734 L194.476799,77.8871676 L192.980673,72.3159172 L192.922978,71.8717853 C192.665476,69.5638949 192.93633,66.6777778 194.137987,63.5229178 L194.453766,62.7188329 C195.817235,59.1310608 195.761672,55.8499715 194.259474,52.9448167 L194.072,52.599 L194.380718,19.3832326 C194.38589,18.8273353 193.936683,18.3739297 193.380762,18.3739297 L192.810735,18.3768441 Z M192.371,20.384 L192.06926,52.8521327 C192.067553,53.0356583 192.116385,53.2161142 192.210409,53.3737342 C193.695976,55.8641102 193.834379,58.7073949 192.592237,61.9873349 L192.453867,62.3404317 C190.973124,65.9972875 190.631546,69.3710195 190.935312,72.0935586 L190.970998,72.3829843 C190.994554,72.5557714 191.017102,72.6878383 191.035413,72.7768242 L192.608151,78.6401603 C192.650054,78.7961998 192.729142,78.9397626 192.838646,79.0585614 C195.164181,81.5814972 196.568045,84.1895468 197.072228,86.8895748 C197.266216,87.928428 201.260615,97.0388929 201.639103,97.9698956 C202.943019,101.177264 203.96965,104.074954 204.726812,106.81167 L204.948108,107.636457 C207.457115,117.29604 206.062025,123.385723 199.561001,125.269392 C188.750127,128.401838 182.756269,126.13813 180.998797,118.521531 C180.972,118.405396 180.924657,118.294986 180.859002,118.195512 C173.04471,106.35601 167.393053,95.316225 163.90131,85.0803643 C163.531487,83.9962482 161.925246,84.2843116 161.955206,85.429379 L162.023217,88.3045454 C162.500355,110.948591 161.340898,123.500677 159.224823,124.541009 L159.159,124.569 L151.000849,125.079519 C100.268401,128.303894 70.5109078,131.242806 61.5232541,133.933575 L61.2434656,134.019366 C49.8143047,137.610962 43.788626,130.218795 47.5700153,120.420242 L47.9244306,119.522101 C49.3677042,115.779728 51.6715059,108.396081 54.8824782,97.4280904 L56.231028,92.7958027 L63.1336849,68.7539662 C63.9816512,65.8373758 64.5213023,64.0445235 64.8578503,63.0308473 C67.5127741,55.0342669 74.0400981,47.3760397 82.8699121,43.8678351 L84.3867109,43.2696748 C90.6638958,40.8118333 98.8798977,37.802471 109.03283,34.2424434 L110.95,33.571 L111.092266,33.7317052 C115.423978,38.5205203 120.989018,40.9275998 127.719824,40.9275998 C131.902348,40.9275998 134.752511,39.6758953 137.722758,37.1298345 L138.135103,36.7673675 C138.573537,36.3683294 140.056317,35.0017131 140.487198,34.6461138 L140.718437,34.4598034 C141.935029,33.5044678 142.894621,33.160487 144.074931,33.3432745 L144.241,33.373 L145.841649,33.9389025 L145.951325,33.9709298 C146.537024,34.106798 147.123655,33.6908746 147.171836,33.0739096 L147.535,28.417 L147.963083,28.2695379 C158.912888,24.524932 166.163726,24.7941001 169.799097,28.8489864 C170.208417,29.3055414 170.92846,29.2895626 171.317124,28.8152991 C175.666831,23.5076102 182.449347,20.6925393 191.73701,20.3994666 L192.371,20.384 Z" id="Path-91" fill="#000000" fill-rule="nonzero"/><path d="M74.5787648,102.495912 C81.6951778,101.662072 87.5953467,102.10999 92.279804,103.861174 L94.1544735,104.58939 C98.2568007,106.1565 104.477474,108.308933 112.810368,111.044127 L116.551,112.265 L121.56477,112.265455 C122.046698,112.265455 122.453762,112.607679 122.545507,113.069719 L122.561735,113.187597 L122.730065,115.454587 C123.152101,121.472564 123.236756,125.707825 122.979697,128.192656 C122.922865,128.742009 122.431456,129.141277 121.882103,129.084446 C121.33275,129.027615 120.933482,128.536205 120.990314,127.986852 C121.23256,125.6452 121.149116,121.507294 120.735671,115.605249 L120.638,114.265 L116.394035,114.265455 C116.324154,114.265455 116.254564,114.25813 116.186393,114.24366 L116.085344,114.216617 L112.179586,112.942071 C102.772049,109.85409 96.0405468,107.503818 91.9763611,105.887608 C87.5676522,104.134391 81.8458424,103.658101 74.8115154,104.482323 C74.2629833,104.546595 73.7662071,104.154025 73.7019348,103.605493 C73.6376625,103.056961 74.0302326,102.560185 74.5787648,102.495912 Z" id="Path-92" fill="#000000" fill-rule="nonzero"/><polygon id="Path-93" fill="#000000" fill-rule="nonzero" points="117.394035 113.265555 117.394035 128.089754 115.394035 128.089754 115.394035 113.265555"/><path d="M86.9329626,86.4474784 C87.4852295,86.4430706 87.9365303,86.8871714 87.9409711,87.4394383 L87.9464221,88.4900197 C87.964152,96.4156532 87.4273035,101.380893 86.2558774,103.56283 C85.9946383,104.049422 85.3884007,104.232107 84.9018079,103.970868 C84.4152151,103.709629 84.2325299,103.103392 84.4937691,102.616799 C85.4940691,100.753607 86.0067893,95.6327775 85.9410357,87.4555198 C85.9365949,86.9032529 86.3806957,86.4519522 86.9329626,86.4474784 Z" id="Path-94" fill="#000000" fill-rule="nonzero"/><path d="M89.988088,87.8100415 C90.4006624,87.4428891 91.0327558,87.4797109 91.3999081,87.8922852 C91.7670605,88.3048596 91.7302387,88.936953 91.3176644,89.3041053 C89.7270847,90.7195718 88.5901949,92.7784125 87.9177168,95.5078707 C87.785597,96.0441195 87.2437772,96.3717308 86.7075283,96.239611 C86.1712795,96.1074911 85.8436683,95.5656713 85.9757881,95.0294225 C86.7395481,91.9294685 88.0734076,89.5139271 89.988088,87.8100415 Z" id="Path-95" fill="#000000" fill-rule="nonzero"/><path d="M123.086077,120.745456 L123.223976,118.750216 L127.142004,119.026909 C134.243991,119.540056 139.653408,119.999429 143.374417,120.405596 L144.617614,120.546741 C145.182364,120.613627 145.747335,120.670592 146.35336,120.723118 L148.768704,120.905285 C153.690099,121.261205 155.310631,122.050874 155.373483,125.356825 L155.3754,125.562392 L153.3754,125.562392 C153.3754,123.584389 152.741349,123.212407 148.904017,122.920788 L146.894379,122.774215 L146.655713,122.755316 C146.007932,122.703163 145.410818,122.647646 144.822567,122.583075 L143.149925,122.392964 C139.675562,122.013859 134.698955,121.586372 128.223577,121.110977 L123.086077,120.745456 Z" id="Path-96" fill="#000000" fill-rule="nonzero"/><path d="M136.784845,119.690273 C151.897431,117.266479 159.842207,119.049363 160.011315,125.592843 L160.014073,125.807905 L158.014073,125.807905 C158.014073,121.022791 151.407078,119.432031 137.586599,121.588297 L137.101562,121.665036 L136.784845,119.690273 Z" id="Path-97" fill="#000000" fill-rule="nonzero"/><path d="M161.257228,76.7080896 C161.792316,76.5713443 162.336944,76.8942648 162.47369,77.4293528 C163.207265,80.2998533 163.570127,84.0058363 163.570127,88.5570734 C163.570127,89.1093582 163.122412,89.5570734 162.570127,89.5570734 C162.017843,89.5570734 161.570127,89.1093582 161.570127,88.5570734 C161.570127,84.1595463 161.222789,80.612115 160.535964,77.9245514 C160.399219,77.3894634 160.72214,76.8448349 161.257228,76.7080896 Z" id="Path-98" fill="#000000" fill-rule="nonzero" transform="translate(162.037357, 83.116893) rotate(-6.000000) translate(-162.037357, -83.116893)"/><path d="M193.533586,76.7036912 L193.992992,78.6502129 L192.652722,78.9696524 C185.240362,80.7542708 180.939101,82.1004776 180.185175,82.7909631 C178.570925,84.2693785 176.855243,91.5852241 178.021639,94.9402708 L178.123468,95.2493666 C179.106268,98.3894261 180.044814,105.942876 180.973515,118.041008 L181.021543,118.670827 L179.027257,118.821904 L178.838025,116.389909 C177.969783,105.532835 177.089532,98.6600983 176.226612,95.8836522 L176.132545,95.5970223 C174.708184,91.4999595 176.621098,83.3430964 178.834378,81.3160572 C179.911979,80.329133 183.904015,79.0426285 191.197387,77.2638105 L193.533586,76.7036912 Z" id="Path-99" fill="#000000" fill-rule="nonzero"/><path d="M191.758879,70.6870351 C192.292758,70.5456437 192.840173,70.8638179 192.981565,71.3976971 C193.112857,71.893442 192.847891,72.400858 192.381915,72.5840226 L192.270903,72.6203825 L179.745,75.937 L181.002449,81.923574 C181.107857,82.4254602 180.816935,82.9184535 180.342088,83.0772079 L180.229339,83.1077623 C179.727453,83.2131702 179.23446,82.9222481 179.075705,82.4474011 L179.045151,82.3346528 L177.592821,75.4195743 C177.49126,74.936002 177.757866,74.4572231 178.208326,74.2822184 L178.315458,74.2473612 L191.758879,70.6870351 Z" id="Path-100" fill="#000000" fill-rule="nonzero"/><path d="M179.221156,40.5258088 C180.316731,40.1943022 181.226738,40.5019604 181.979015,41.3711252 L182.017,41.416 L182.035727,41.380389 C182.337014,40.8302924 182.817238,40.5252745 183.509388,40.4870503 L183.660961,40.4829509 C185.394888,40.4829509 187.150992,44.4794699 190.208414,54.0732753 L190.34,54.491 L190.392142,54.5014237 C191.195602,54.626371 191.655999,54.1469056 191.981577,52.7907559 L192.027193,52.591027 C192.144554,52.051356 192.677184,51.709006 193.216855,51.8263669 C193.756526,51.9437278 194.098876,52.4763575 193.981515,53.0160285 C193.357385,55.8860179 191.633703,57.1342036 189.205682,56.2438544 C188.914708,56.137155 188.68965,55.9015729 188.596351,55.6060296 L188.086198,54.007269 C186.864241,50.2207856 185.826384,47.326319 184.976016,45.3304256 C184.548489,44.3269781 184.172089,43.5602026 183.854837,43.0389346 L183.761444,42.8899282 L183.693,42.788 L183.690276,42.8031375 C183.590553,43.3963481 183.631,44.3509608 183.824435,45.6375997 L183.871795,45.940397 C184.078498,47.2141977 182.199632,47.5824544 181.910186,46.3248712 L181.775243,45.7672186 C181.118112,43.1868295 180.394381,42.2603604 179.800394,42.440093 C179.19822,42.6223029 179.19822,44.3704494 180.453849,47.9308952 C180.880815,49.1415974 179.112898,49.8413879 178.595564,48.6664552 C177.974617,47.256202 177.405015,46.4109566 176.990403,46.0634984 L176.907,46 L176.904458,46.1405605 C176.904458,46.7732123 177.070215,47.7472609 177.405873,49.0386864 L177.576157,49.6692226 C177.905837,50.9084097 176.124411,51.4371527 175.685918,50.3133921 L175.646673,50.1954728 L175.548946,49.8421747 C175.214059,48.687482 174.990485,48.5792726 174.413898,48.9979572 L174.33304,49.0582676 C173.569419,49.6413566 175.595889,59.0382017 180.466161,74.7917172 C180.629284,75.319362 180.333782,75.8793406 179.806137,76.0424645 C179.278492,76.2055883 178.718514,75.9100856 178.55539,75.3824408 L177.71879,72.6550945 C172.827067,56.5720249 171.278643,48.8741624 173.119265,47.4686921 C173.738529,46.9958324 174.329403,46.7619744 174.87204,46.7449073 L174.917,46.744 L174.909559,46.6651757 C174.747908,44.8979867 175.184975,43.9456255 176.468951,43.8820467 L176.609772,43.8786391 C176.87521,43.8786391 177.131055,43.9227513 177.378783,44.0100178 L177.445,44.036 L177.439342,43.9630217 C177.311944,42.1718785 177.814354,41.0266515 179.072611,40.5748586 L179.221156,40.5258088 Z" id="Path-101" fill="#000000" fill-rule="nonzero"/><path d="M176.348184,48.9611454 C176.843163,48.8269935 177.3521,49.0890257 177.537952,49.5539361 L177.574952,49.6647365 L180.732465,61.3149743 C180.876936,61.8480283 180.561927,62.397271 180.028873,62.5417422 C179.533895,62.6758941 179.024957,62.4138619 178.839106,61.9489515 L178.802105,61.838151 L175.644593,50.1879133 C175.500122,49.6548593 175.81513,49.1056166 176.348184,48.9611454 Z" id="Path-102" fill="#000000" fill-rule="nonzero"/><path d="M179.21399,47.3085356 C179.703719,47.1563334 180.221918,47.3995376 180.424683,47.8573245 L180.465719,47.9666944 L184.111059,59.696031 C184.274969,60.2234321 183.980301,60.7838505 183.4529,60.9477606 C182.963171,61.0999628 182.444972,60.8567586 182.242207,60.3989718 L182.201171,60.2896018 L178.555831,48.5602652 C178.391921,48.0328641 178.686589,47.4724457 179.21399,47.3085356 Z" id="Path-103" fill="#000000" fill-rule="nonzero"/><path d="M182.643103,45.1301996 C183.140746,45.0062967 183.644165,45.2787815 183.820377,45.7474303 L183.855082,45.8589711 L186.721807,57.3728661 C186.855241,57.9087894 186.528959,58.4514107 185.993035,58.5848447 C185.495392,58.7087477 184.991974,58.4362628 184.815761,57.967614 L184.781057,57.8560732 L181.914332,46.3421782 C181.780898,45.8062549 182.10718,45.2636336 182.643103,45.1301996 Z" id="Path-104" fill="#000000" fill-rule="nonzero"/><polygon id="Path-105" fill="#000000" fill-rule="nonzero" points="171.543671 28.1813602 171.543 60.576 175.913828 60.5765627 175.913828 62.5765627 169.543671 62.5765627 169.543671 28.1813602"/><path d="M146.197497,31.996049 C146.710201,32.0079134 147.12403,32.4034179 147.170528,32.9019363 L147.174615,33.0186798 L146.529,61.502 L171.604505,60.5765982 C172.116992,60.5576848 172.553613,60.9278742 172.629681,61.4227441 L172.640705,61.5390378 C172.659618,62.0515247 172.289429,62.4881457 171.794559,62.5642135 L171.678265,62.5752376 L145.543122,63.5397612 C145.006192,63.5595767 144.55717,63.1535222 144.510277,62.6313698 L144.506497,62.5178159 L145.175127,32.9734286 C145.187623,32.4212853 145.645353,31.9838144 146.197497,31.996049 Z" id="Path-106" fill="#000000" fill-rule="nonzero"/><path d="M192.899258,19.3102808 C193.420628,19.1280948 193.990973,19.4030578 194.173159,19.9244279 C194.342332,20.4085572 194.11733,20.9349148 193.666886,21.153507 L193.559012,21.1983287 L170.873548,29.1254698 C170.700455,29.1859548 170.514064,29.1976855 170.334754,29.1593793 C166.876652,28.4206234 158.975845,28.4205951 146.742779,29.1794417 C146.191553,29.2136355 145.716978,28.7944988 145.682784,28.2432736 C145.64859,27.6920484 146.067727,27.2174725 146.618952,27.1832787 L148.511354,27.0698793 C159.446952,26.4385433 166.699825,26.4516315 170.354247,27.1245171 L170.472,27.147 L192.899258,19.3102808 Z" id="Path-107" fill="#000000" fill-rule="nonzero"/></g></g><g id="Head" transform="translate(250.000000, 368.000000) scale(1 1)" fill="#000000"><g id="Head/Half Shave" stroke="none" stroke-width="1" fill="none" fill-rule="evenodd"><g id="Group-3" fill="#000000"><path d="M35.8401,9.568 C35.6171,9.582 35.3941,9.597 35.1701,9.611 C35.1701,11.599 35.1561,13.587 35.1741,15.574 C35.2001,18.598 35.8341,19.368 38.8121,19.874 C41.0921,20.261 43.4221,20.421 45.6641,20.955 C49.0301,21.757 50.2031,23.851 49.4251,27.22 C49.1011,28.619 48.6411,29.99 48.3881,31.401 C48.0821,33.107 48.4801,33.74 50.1351,34.265 C51.3481,34.65 52.6131,34.868 53.8541,35.168 C55.3511,35.53 56.4331,36.385 56.9881,37.849 C57.1761,38.342 57.3501,38.84 57.6351,39.627 C58.3631,36.251 57.6161,34.936 54.8121,34.169 C54.4271,34.064 54.0281,34.003 53.6521,33.873 C51.8501,33.251 51.0601,32.152 51.2531,30.243 C51.3561,29.227 51.6821,28.219 52.0051,27.24 C53.9921,21.228 52.1211,18.641 45.7201,18.614 C44.0441,18.607 42.3591,18.763 40.6961,18.624 C37.6631,18.371 36.4921,17.061 36.2621,14.028 C36.1491,12.539 35.9831,11.054 35.8401,9.568 M58.1871,44.253 C57.2361,44.371 56.2361,44.592 55.2331,44.603 C48.1171,44.679 41.0021,44.706 33.8871,44.762 C32.3941,44.774 30.9021,44.839 29.1281,44.887 C29.8631,47.804 30.5321,50.413 31.1741,53.028 C31.4691,54.228 31.4441,54.234 30.1721,55.269 C29.7911,54.347 29.3681,53.527 29.1111,52.659 C27.9751,48.831 26.8911,44.987 25.7751,41.153 C25.6221,40.63 25.3921,40.13 25.1601,39.52 C21.9051,40.157 19.1111,38.968 16.3981,37.578 C15.3451,37.039 14.4061,36.259 13.4711,35.519 C12.9721,35.125 12.4321,34.467 13.1081,33.942 C13.4421,33.683 14.3081,33.833 14.7841,34.083 C16.4731,34.964 18.0691,36.024 19.7601,36.901 C20.5251,37.299 21.4141,37.509 22.2731,37.664 C24.3821,38.043 25.5471,37.403 26.5521,35.507 C29.3841,30.169 30.1931,24.303 31.0141,18.443 C31.2021,17.099 31.2981,15.739 31.3631,14.383 C31.4211,13.208 31.3751,12.028 31.3751,10.689 C30.1281,10.589 29.0161,10.596 27.9431,10.396 C24.2551,9.708 20.5861,8.926 16.9011,8.23 C16.0531,8.07 14.0501,7.676 13.9431,7.4 C13.0661,7.21 10.4641,8.769 9.5021,10.904 C8.2021,13.788 7.6981,18.937 7.3901,20.665 C7.2931,21.211 7.1961,22.091 6.9031,22.603 C6.4111,22.279 6.0571,21.908 5.7481,21.416 C5.4771,20.984 5.2161,20.401 4.9271,20.172 C4.4761,19.816 3.7101,19.733 3.3151,19.855 C2.8511,19.998 2.3911,20.709 2.2551,21.255 C1.8281,22.964 2.7491,24.758 4.7181,25.386 C6.5341,25.965 6.8781,27.064 6.6771,28.644 C6.0421,33.632 5.4421,38.626 4.7221,43.602 C4.2871,46.603 3.6831,49.58 3.0961,52.556 C2.9521,53.286 2.5781,53.971 2.3061,54.687 C0.8241,54.401 0.8251,53.509 0.9821,52.627 C1.4711,49.877 2.0941,47.149 2.5101,44.388 C3.2731,39.336 3.9301,34.267 4.6141,29.203 C4.6781,28.737 4.6231,28.255 4.6231,27.711 C4.0201,27.384 3.3621,27.192 2.9421,26.766 C2.0591,25.874 1.0821,24.966 0.5411,23.869 C-0.2769,22.211 -0.2139,20.417 1.0461,18.903 C2.3221,17.37 3.9671,17.506 5.9431,18.244 C6.1421,17.089 6.3651,16.034 6.4991,14.968 C7.0931,10.236 9.3471,6.768 13.8581,4.844 C14.9221,4.391 15.8241,3.508 16.7281,2.736 C23.4791,-3.029 34.7111,0.891 36.5181,9.131 C36.7381,10.136 36.7581,11.187 36.8711,12.216 C36.9681,13.088 37.0101,13.969 37.1741,14.828 C37.5701,16.909 38.4221,17.718 40.5621,17.831 C42.4751,17.932 44.4021,17.778 46.3161,17.876 C47.5771,17.941 48.8821,18.089 50.0711,18.486 C52.6201,19.338 53.8941,21.385 53.5751,24.073 C53.4261,25.326 52.9211,26.533 52.6331,27.774 C52.4011,28.776 52.1791,29.791 52.0861,30.813 C51.9781,32.018 52.6731,32.75 53.7791,33.114 C54.0821,33.214 54.3991,33.274 54.7121,33.335 C57.7031,33.913 59.0961,35.541 58.8131,39.289 C58.6991,40.791 58.4411,42.281 58.1871,44.253" id="Fill-1"/></g></g></g><g id="Face" transform="translate(264.000000, 380.000000) scale(1 1)" fill="#000000"><g id="Face/Kind" stroke="none" stroke-width="1" fill="none" fill-rule="evenodd"><g id="Group-14" transform="translate(-1.000000, -2.000000)" fill="#000000"><g id="Group-3" transform="translate(0.000000, 0.826700)"><path d="M2.9468,4.9331 C2.8728,4.9681 2.7978,5.0001 2.7248,5.0371 C2.7978,5.0001 2.8728,4.9681 2.9468,4.9331 L2.9468,4.9331 Z M2.2548,5.2951 C2.1438,5.3601 2.0348,5.4321 1.9268,5.5031 C2.0348,5.4321 2.1438,5.3601 2.2548,5.2951 L2.2548,5.2951 Z M1.3118,5.9561 C1.1808,6.0631 1.0508,6.1721 0.9278,6.2901 C1.0508,6.1721 1.1808,6.0631 1.3118,5.9561 L1.3118,5.9561 Z M0.5868,6.6471 C0.4758,6.7721 0.3698,6.9071 0.2668,7.0441 C0.3698,6.9071 0.4758,6.7721 0.5868,6.6471 L0.5868,6.6471 Z M8.8638,3.3911 C9.1358,3.2861 9.4338,2.7271 9.5868,2.0321 C9.7708,1.2071 9.6858,0.5141 9.3598,0.1771 C9.3568,0.1751 9.3538,0.1731 9.3508,0.1741 C9.3468,0.1741 9.3438,0.1761 9.3418,0.1791 C8.4728,1.6591 6.7308,2.1161 5.0448,2.5581 C4.1508,2.7931 3.2408,3.0431 2.4678,3.4371 C2.4308,3.4561 2.3968,3.4751 2.3608,3.4951 C2.2408,3.5591 2.1138,3.6171 2.0018,3.6901 C0.4748,4.6891 0.1898,6.3111 -0.0002,7.3861 C-0.0012,7.3911 0.0018,7.3951 0.0078,7.3971 C0.0088,7.3981 0.0098,7.3981 0.0118,7.3981 C0.0158,7.3981 0.0188,7.3961 0.0218,7.3931 C1.7588,4.7331 5.0088,4.1571 7.1588,3.7751 C7.8598,3.6501 8.4668,3.5431 8.8638,3.3911 L8.8638,3.3911 Z" id="Fill-1"/></g><path d="M11.2918,7.2554 C11.2868,7.2554 11.2818,7.2604 11.2818,7.2654 L10.5298,13.9934 C10.5288,13.9974 10.5308,14.0004 10.5328,14.0034 C10.5348,14.0054 10.5378,14.0064 10.5408,14.0064 L10.5428,14.0064 L12.9348,13.7674 C12.9378,13.7674 12.9408,13.7654 12.9428,13.7634 C12.9438,13.7604 12.9448,13.7564 12.9438,13.7534 L11.3038,7.2644 C11.3028,7.2584 11.2978,7.2544 11.2918,7.2554" id="Fill-4"/><path d="M11.7547,15.8785 C10.7447,16.4055 9.8277,16.5295 9.0337,16.2465 C7.8567,15.8325 7.3077,14.6495 7.2837,14.5975 L7.2337,14.4865 L6.8387,14.6575 L6.8897,14.7745 C6.9537,14.9165 7.5507,16.1815 8.8877,16.6535 C9.2117,16.7685 9.5557,16.8265 9.9077,16.8265 C10.5467,16.8265 11.2347,16.6365 11.9547,16.2625 L12.0667,16.2035 L11.8647,15.8215 L11.7547,15.8785 Z" id="Fill-6"/><path d="M2.8611,7.8843 C2.8181,8.0723 2.7911,8.2923 2.7911,8.4473 C2.7911,9.4393 3.7101,10.2453 4.8401,10.2453 C5.9701,10.2453 6.8901,9.4393 6.8901,8.4473 C6.8901,8.0203 6.5391,7.5143 6.2291,7.1833 C7.7841,7.3093 9.1651,8.1533 9.5691,8.4243 C9.2101,8.8623 7.8491,10.3523 5.9351,10.4703 C5.8571,10.4753 5.7791,10.4783 5.7011,10.4783 C3.8431,10.4783 2.0451,9.1473 1.5491,8.7503 C1.7491,8.5763 2.2061,8.2183 2.8611,7.8843 M9.9431,8.4863 C9.9951,8.4133 9.9791,8.3133 9.9061,8.2563 C9.8291,8.1983 7.9891,6.8523 5.9141,6.8253 L5.8311,6.8253 C3.0181,6.8253 1.2541,8.5673 1.1771,8.6433 C1.1471,8.6763 1.1301,8.7203 1.1321,8.7643 C1.1331,8.8103 1.1551,8.8543 1.1851,8.8783 C1.1891,8.8833 1.7791,9.4043 2.6561,9.8973 C3.3961,10.3133 4.5261,10.8103 5.7041,10.8103 C5.7881,10.8103 5.8731,10.8083 5.9561,10.8023 C8.3401,10.6553 9.8781,8.5753 9.9431,8.4863" id="Fill-8"/><path d="M13.0281,7.9351 C13.0601,8.3401 13.2221,8.7511 13.4981,9.0811 C13.8221,9.4721 14.2371,9.6871 14.6661,9.6871 C15.5761,9.6871 16.3161,8.9471 16.3161,8.0371 C16.3161,7.6151 16.1541,7.2261 15.8751,6.9231 C15.9941,6.9141 16.1091,6.8981 16.2331,6.8981 C17.4531,6.8981 18.5721,7.8021 18.8841,8.0791 C18.6001,8.4841 17.4971,9.9011 15.9431,10.0121 C15.8821,10.0171 15.8211,10.0191 15.7591,10.0191 C14.2661,10.0191 12.8141,8.7801 12.4081,8.4031 C12.5251,8.3001 12.7431,8.1261 13.0281,7.9351 M16.2331,6.5651 C13.7801,6.5661 12.0621,8.2691 12.0481,8.2851 C11.9831,8.3481 11.9831,8.4541 12.0461,8.5161 C12.0501,8.5211 12.5181,9.0031 13.2481,9.4801 C13.8561,9.8771 14.7851,10.3511 15.7571,10.3511 C15.8271,10.3511 15.8971,10.3491 15.9661,10.3441 C17.9031,10.2051 19.1121,8.3511 19.2451,8.1381 C19.2841,8.0731 19.2741,7.9891 19.2191,7.9341 C19.0771,7.7941 17.7811,6.5651 16.2331,6.5651" id="Fill-10"/><path d="M18.8367,6.7896 C18.7807,6.7396 18.7237,6.6956 18.6667,6.6476 C18.7237,6.6956 18.7807,6.7396 18.8367,6.7896 M19.4807,7.4466 C19.4007,7.3576 19.3217,7.2686 19.2417,7.1856 C19.3217,7.2686 19.4007,7.3576 19.4807,7.4466 M17.8557,6.0516 C17.8057,6.0196 17.7557,5.9876 17.7057,5.9576 C17.7557,5.9876 17.8057,6.0196 17.8557,6.0516 M19.6807,7.0156 C19.5557,6.1276 19.4387,5.2886 18.2467,4.6476 C17.4157,4.2016 16.4997,3.9486 15.6137,3.7036 C14.0107,3.2616 12.4957,2.8426 11.4547,1.3746 C11.4527,1.3716 11.4497,1.3696 11.4457,1.3696 C11.4417,1.3686 11.4397,1.3716 11.4377,1.3736 C11.1427,1.7366 11.1167,2.4356 11.3697,3.2416 C11.5827,3.9216 11.9277,4.4526 12.2067,4.5326 C12.5907,4.6436 13.0577,4.7026 13.5977,4.7696 C15.3757,4.9936 17.8117,5.2996 19.8117,7.8516 C19.8137,7.8536 19.8167,7.8556 19.8197,7.8556 C19.8217,7.8556 19.8237,7.8546 19.8247,7.8536 C19.8307,7.8516 19.8327,7.8466 19.8317,7.8416 C19.7587,7.5676 19.7197,7.2866 19.6807,7.0156" id="Fill-12"/></g></g></g><g id="Glasses" transform="translate(261.000000, 385.000000) scale(1 1)"><g id="Glasses/Read" stroke="none" stroke-width="1" fill="none" fill-rule="evenodd"><g id="Group-3" fill="#cbc27d"><path d="M21.6853283,6.70912951 C21.1497633,7.18018401 20.5187622,7.34890304 19.7530279,7.22434536 C16.7136687,6.73064402 14.9385571,3.7378627 14.2536627,0.988535032 C18.6414779,0.788110403 22.4196249,0.615994338 23.4581942,0.569568294 C23.4469664,1.61019108 23.2942687,5.29030432 21.6853283,6.70912951 L21.6853283,6.70912951 Z M11.6645374,2.30771408 C11.7835518,1.92498231 11.8913385,1.52639774 11.9912657,1.11082803 C12.4370084,1.11875442 13.2229528,1.10063694 13.7091156,1.04062279 C13.797815,1.40070771 13.9022333,1.76305732 14.0257389,2.12427459 L11.6645374,2.30771408 Z M6.71084224,7.43382873 C3.72200803,7.72031139 1.1373738,5.24048125 0.607422729,1.62717622 C3.41548972,1.49129512 7.48668162,1.30106157 11.4332452,1.11875442 C10.9235041,3.17055909 9.56943423,7.15753715 6.71084224,7.43382873 L6.71084224,7.43382873 Z M23.9982503,0.277423921 L23.9903908,0 L23.7164331,0.0124557679 C23.631102,0.016985138 19.2904434,0.212880396 14.1301572,0.449539986 L14.1200522,0.404246285 L13.8775322,0.460863411 C13.1903923,0.492569002 12.489779,0.524274593 11.7835518,0.557112527 L11.5679785,0.542392074 L11.5612418,0.567303609 C7.4271744,0.757537155 3.13591808,0.957961783 0.287431088,1.09723992 L0,1.11196037 L0.0336833306,1.40070771 C0.25262498,3.32002831 1.04306047,5.04911536 2.25790593,6.26978061 C3.37956084,7.39646143 4.77854184,8 6.2448895,8 C6.41667448,8 6.58958225,7.9920736 6.76136723,7.97508846 C8.74980652,7.78372258 10.4193769,5.9527247 11.4826474,2.86822364 L14.2199794,2.65534324 C15.166481,5.07062987 16.9438381,7.31946214 19.666574,7.76220807 C20.5872517,7.91167728 21.3855466,7.69539986 22.040126,7.11790517 C22.9170154,6.3467799 23.5109648,4.95399858 23.8096236,2.98145789 C24.0274425,1.53658882 23.9993731,0.328379335 23.9982503,0.277423921 L23.9982503,0.277423921 Z" id="Fill-1"/></g></g></g></g></svg>